<?xml version="1.0" encoding="utf-8"?>
<!-- Generator: Adobe Illustrator 25.4.1, SVG Export Plug-In . SVG Version: 6.00 Build 0)  -->
<svg version="1.1" id="Layer_1" xmlns="http://www.w3.org/2000/svg" xmlns:xlink="http://www.w3.org/1999/xlink" x="0px" y="0px"
	 viewBox="0 0 360 360" enable-background="new 0 0 360 360" xml:space="preserve">
<g>
	<path fill="#FFFFFF" d="M350.8,133.8c-1.2-2.2-3.5-3.6-6-3.6c-0.1,0-0.3,0-0.4,0c-7.7,0.4-17.6,4.6-30.3,12.7
		c-8.7,5.6-17.4,12.3-22.1,16.3c-5.3,4.4-9.6,7.8-11.7,9.3c-1.3,0.1-2.7,0.2-4.1,0.2c-5.3,0-10-0.9-12.7-1.6
		c-6.5-40.4-41.4-71.4-83.7-71.4c-34.2,0-63.5,20.2-77,49.3c-25,4.5-45.3,10.7-56.7,14.6c-10.2,3.5-19.5,7.3-26,10.7
		c-9.4,4.8-12.8,8.2-12.7,12.7l0,0.2l0,0.2c0.8,8.4,12.8,13.7,37.7,21.8c1,0.3,1.8,0.6,2.6,0.9c18.3,6,36.8,10.2,55.1,12.3
		c6.1,25.7,13.1,37.3,22.7,37.3c0.4,0,0.8,0,1.2-0.1c2.6-0.3,4.5-2,5.8-4.5c13.5,9,29.7,14.3,47.2,14.3c40.2,0,73.7-28,82.5-65.5
		c1.9-0.7,3.8-2.1,4.5-4.4c0.2-0.6,0.7-2,1.1-3.2c3-0.2,8.4-0.5,15.9-0.5c3.5,3.2,11.8,10.8,15.7,14.4c6.1,5.7,15.6,12.8,26.8,13.9
		l0.2,0h0.3c2.9,0,5.4-1.7,6.3-4.4c0.8-2.5,0.3-5.1-1.5-6.9c-5.6-5.7-10.8-14.8-15-26.3c1.1-4.4,8.6-14.7,18.2-25.2
		c1.1,0.3,2,0.5,3,0.5c3.8,0,6.8-2.8,6.9-6.6c0-1.2,0.7-3.7,1.3-4.4c1.1-1.2,2.7-3.2,4.5-6C351.8,138.7,351.9,136,350.8,133.8
		L350.8,133.8z M179.8,99.8c38.5,0,70.8,27.1,78.8,63.3c-0.8-1.1-1.5-2.1-2-2.7c-0.9-1.4-1.6-2.4-2.5-3.2c-1.1-1.1-2.6-1.6-4.1-1.6
		c-0.2,0-0.5,0-0.7,0c-3.5,0.4-5.8,1.8-7.7,2.9c-0.3,0.2-0.5,0.3-0.8,0.5c-1.9-0.5-5-1.2-8.2-2c-12.1-3-31.9-7.9-54.7-13.1
		c-0.1-1-0.5-2.1-1.1-3c-1.3-2.5-2.6-14.3-3.3-20.7c-0.3-2.6-0.6-5-0.8-7.3c0,0,0-0.1,0-0.1c-0.2-4.7-3.5-7.1-6.7-7.1
		c-4.9,0-10.2,4.4-22.4,19c-0.5,0.6-0.9,1.1-1.2,1.5c-1.5,1.8-2.8,3.5-4,5.1c-3.4,4.5-5.9,7.9-12.1,10.3c-6.3,0.7-12.4,1.6-18.3,2.6
		C121.2,117.9,148.4,99.8,179.8,99.8L179.8,99.8z M179.8,261.2c-17.1,0-32.9-5.4-46-14.5c0.1-0.6,0.2-1.2,0.2-1.9
		c0-0.2,0-13.8,1.8-24.8c36.3-0.5,62.4-8.8,75.8-14.3c5.5,4,13.4,3.3,14,3.2c7-0.8,7.8-7.5,8.2-10c0-0.1,0-0.3,0.1-0.5
		c3.3-1.2,10.5-2.7,14.4-3.2c4.1,3.6,7.6,4.7,9.6,5.1C249,235.3,217.4,261.2,179.8,261.2L179.8,261.2z M346.1,137.9
		c-1.2,1.8-2.8,4.1-4,5.4c-1.5,1.6-2.6,5.7-2.6,7.8c0,0.9-0.7,1.5-1.6,1.5c-1.2,0-2.9-0.8-4.2-1.6c-2.7,2.9-21.7,23.3-22.2,32.1
		c0.1,0.1,0.1,0.3,0.2,0.6c4.6,12.5,10.3,22.5,16.4,28.8c0.4,0.4,0.5,1,0.3,1.5c-0.3,0.8-1.1,0.9-1.3,0.9c0,0-0.1,0-0.1,0
		c-9.6-0.9-18.2-7.3-23.7-12.5c-4.7-4.4-15.6-14.3-17.3-15.9c-9.1,0-19.4,0.3-21.8,1c0,0.1-0.1,0.2-0.1,0.3c-0.5,1.5-1.7,4.8-2.1,6
		c-0.4,1.2-2.4,1.7-2.4,1.7c-5.1-0.2-8-5.1-8.8-5.1c0,0-0.1,0-0.1,0c-3.1,0-16.7,2.2-20.6,4.4c-0.9,0.5-1.1,2.1-1.3,3.7
		c-0.3,2.3-0.7,5.1-3.6,5.4c-0.1,0-0.2,0-0.3,0c-0.8,0-3.2-0.1-6.1-0.9c-2.1-0.6-4.3-1.6-6.7-3c0,0-0.1,0-0.1-0.1
		c-0.1,0.1-0.3,0.1-0.5,0.2c-12.8,5.5-40,14.6-78.7,14.6c-0.4,0-0.8,0-1.2,0c-2.7,11.9-2.7,29.8-2.7,30c0,1.7-0.5,5.3-2.5,5.5
		c-0.2,0-0.4,0-0.6,0c-7.1,0-13.3-13.3-18.5-36.8c-19.1-2-38.5-6.2-57.7-12.5c-0.8-0.3-1.7-0.5-2.7-0.9
		c-16.2-5.3-33.6-11.4-34.1-17.3c0,0,0,0,0-0.1c0-0.7-0.1-2.8,9.8-7.9c6.4-3.2,15.4-6.9,25.4-10.4c14.6-5,44.3-14,79.5-17.9
		c8.1-3,11.3-7.3,15-12.3c1.2-1.6,2.4-3.2,3.8-4.9c0.3-0.4,0.8-0.9,1.3-1.5c7.5-8.9,14.9-17.1,18.4-17.1c0,0,1.3,0,1.4,2.2
		c0,0.1,0,0.2,0,0.3c0,0,0,0.1,0,0.1c0.3,2.2,0.5,4.6,0.8,7.2c1,9,2.2,20.2,4.1,23c0.5,0.7,0.3,1.3,0.2,1.5
		c-0.1,0.2-0.3,0.5-0.8,0.6c-0.8-0.1-1.6-0.1-2.4-0.1c-0.5,0-0.9,0-1.4,0c-2.6,0.1-5.5,0.8-5.5,0.8c-1.1,0.3-1.7,0.7-1.8,1
		c-0.1,0.4,0.8,0.4,2.3,0.4c1.1,0,2.6,0,4.3,0c1.8,0,3.9,0.1,6.1,0.3c0.3,0.1,0.5,0.1,0.8,0.2c23.7,5.4,44.6,10.5,57.1,13.6
		c5.3,1.3,9.2,2.3,10.2,2.5c1.1-0.5,2-1,2.8-1.5c1.6-1,4.6-2.3,6.2-2c1,0.7,6.5,9.4,9.9,10.6c3.1,1.1,9.3,2.3,15.7,2.3
		c2.2,0,4.3-0.1,6.1-0.4c1-0.7,6.3-4.7,13-10.3c4.6-3.9,13-10.4,21.5-15.8c11.8-7.5,21.2-11.6,27.8-11.9c0,0,0.1,0,0.1,0
		c0.6,0,1.1,0.3,1.4,0.8C346.4,136.8,346.4,137.4,346.1,137.9L346.1,137.9z"/>
	<path fill="#BADEF5" d="M248.3,195.3c-3.9,0.5-11.1,2-14.4,3.2c0,0.2,0,0.3-0.1,0.5c-0.3,2.5-1.2,9.2-8.2,10
		c-0.6,0.1-8.4,0.7-14-3.2c-13.4,5.5-39.5,13.8-75.8,14.3c-1.8,10.9-1.8,24.6-1.8,24.8c0,0.7-0.2,1.3-0.2,1.9
		c1.2,0.8,2.4,1.6,3.6,2.3c0.7,0.5,1.5,0.9,2.2,1.4c1.2,0.7,2.3,1.3,3.5,1.9c0.9,0.5,1.8,0.9,2.8,1.3c1.1,0.5,2.2,1.1,3.4,1.5
		c2,0.8,4,1.6,6,2.2c0.8,0.3,1.6,0.5,2.5,0.7c1.5,0.4,3,0.8,4.6,1.2c0.9,0.2,1.8,0.4,2.7,0.5c1.6,0.3,3.3,0.6,4.9,0.8
		c0.8,0.1,1.6,0.2,2.4,0.3c2.4,0.2,4.9,0.4,7.4,0.4c2.6,0,5.1-0.1,7.7-0.4c0.8-0.1,1.7-0.2,2.5-0.3c1.7-0.2,3.3-0.4,5-0.8
		c1-0.2,1.9-0.4,2.9-0.6c1.5-0.3,2.9-0.7,4.3-1.1c1-0.3,2-0.6,3-0.9c1.3-0.4,2.6-0.9,3.9-1.4c1-0.4,2.1-0.8,3.1-1.2
		c1.2-0.5,2.3-1.1,3.5-1.7c4.5-2.2,8.7-4.9,12.7-7.9c0.5-0.4,1.1-0.8,1.6-1.2c1.3-1,2.6-2.2,3.8-3.3c0.4-0.4,0.9-0.8,1.3-1.2
		c1.3-1.2,2.5-2.5,3.7-3.8c0.3-0.3,0.6-0.6,0.9-1c1.3-1.4,2.6-2.9,3.7-4.4c0,0,0.1-0.1,0.1-0.1c6.7-8.6,11.6-18.6,14.4-29.5
		c0,0,0,0,0,0C255.8,200.1,252.3,199,248.3,195.3L248.3,195.3z"/>
	<path fill="#BADEF5" d="M138.2,131.3c1.2-1.6,2.5-3.3,4-5.1c0.3-0.4,0.7-0.9,1.2-1.5c12.2-14.6,17.5-19,22.4-19
		c3.1,0,6.4,2.4,6.7,7.1c0,0,0,0.1,0,0.1c0.3,2.2,0.6,4.7,0.8,7.3c0.7,6.4,2,18.2,3.3,20.7c0.6,1,1,2,1.1,3
		c22.8,5.2,42.6,10.1,54.7,13.1c3.2,0.8,6.3,1.6,8.2,2c0.3-0.1,0.5-0.3,0.8-0.5c1.9-1.1,4.2-2.5,7.7-2.9c0.2,0,0.5,0,0.7,0
		c1.5,0,3,0.6,4.1,1.6c0.9,0.8,1.5,1.8,2.5,3.2c0.4,0.6,1.2,1.7,2,2.7c0-0.1,0-0.1-0.1-0.2c-1.4-6.2-3.5-12.1-6.3-17.7
		c-0.3-0.6-0.5-1.1-0.8-1.7c-0.7-1.4-1.6-2.8-2.4-4.2c-0.4-0.7-0.8-1.4-1.3-2.1c-0.8-1.3-1.7-2.5-2.6-3.8c-0.5-0.7-1.1-1.4-1.6-2.2
		c-0.9-1.2-1.8-2.3-2.8-3.4c-0.6-0.7-1.3-1.4-1.9-2.1c-1-1-1.9-2.1-2.9-3c-0.8-0.7-1.6-1.4-2.3-2.1c-1-0.9-2-1.8-3-2.6
		c-1.8-1.4-3.6-2.8-5.5-4.1c-0.8-0.6-1.7-1.1-2.6-1.6c-1.2-0.8-2.4-1.5-3.7-2.2c-0.9-0.5-1.9-1-2.8-1.5c-1.3-0.6-2.5-1.3-3.8-1.8
		c-1-0.4-2-0.8-2.9-1.2c-1.3-0.5-2.7-1-4-1.5c-1-0.3-2-0.6-3-0.9c-1.4-0.4-2.9-0.8-4.4-1.1c-1-0.2-1.9-0.5-2.9-0.6
		c-1.7-0.3-3.3-0.6-5-0.8c-0.8-0.1-1.7-0.3-2.5-0.3c-2.5-0.2-5.1-0.4-7.7-0.4c-2.5,0-4.9,0.2-7.3,0.4c-0.7,0.1-1.4,0.1-2,0.2
		c-1.9,0.2-3.8,0.5-5.7,0.9c-0.5,0.1-1.1,0.2-1.6,0.3c-2.2,0.5-4.5,1.1-6.6,1.7c-0.7,0.2-1.4,0.5-2.1,0.7c-1.5,0.5-3,1.1-4.5,1.7
		c-0.8,0.3-1.6,0.6-2.4,1c-1.8,0.8-3.5,1.6-5.2,2.5c-1,0.5-1.9,1.1-2.9,1.6c-1.1,0.6-2.2,1.3-3.2,2c-1,0.6-2,1.3-2.9,2
		c-0.8,0.6-1.6,1.2-2.3,1.8c-2,1.6-4,3.2-5.9,4.9c-0.3,0.3-0.7,0.6-1,0.9c-1.1,1-2.1,2.1-3.2,3.2c-0.4,0.4-0.7,0.8-1.1,1.2
		c-3.3,3.7-6.3,7.8-8.9,12.1c-0.2,0.3-0.3,0.5-0.5,0.8c-0.9,1.5-1.7,3-2.5,4.5c0,0,0,0,0,0c5.9-1,12-1.9,18.3-2.6
		C132.4,139.1,134.8,135.8,138.2,131.3L138.2,131.3z"/>
	<path fill="#0054A6" d="M328.4,204.8c1.3-7.9,2-16,2-24.2c0-5.7-0.4-11.4-1-17c-6.8,8.1-11.8,15.4-12.7,18.9
		C320.1,191.6,324.1,199.2,328.4,204.8L328.4,204.8z"/>
	<path fill="#0054A6" d="M46.1,159.7c11.3-3.9,31.7-10.2,56.7-14.6c13.4-29.1,42.8-49.3,77-49.3c42.3,0,77.2,30.9,83.7,71.4
		c2.6,0.8,7.3,1.6,12.7,1.6c1.5,0,2.8-0.1,4.1-0.2c2-1.5,6.4-4.9,11.7-9.3c4.7-4,13.4-10.7,22.1-16.3c3.5-2.3,6.8-4.1,9.9-5.8
		C305.3,75.2,247.8,30,179.8,30C101.6,30,37.4,89.6,30,165.8C34.9,163.8,40.3,161.7,46.1,159.7L46.1,159.7z"/>
	<path fill="#0054A6" d="M299.6,206.2c-3.9-3.7-12.2-11.2-15.7-14.4c-7.5,0-12.9,0.3-15.9,0.5c-0.5,1.3-0.9,2.6-1.1,3.2
		c-0.8,2.4-2.6,3.7-4.5,4.4c-8.8,37.5-42.4,65.5-82.5,65.5c-17.5,0-33.7-5.3-47.2-14.3c-1.2,2.5-3.2,4.2-5.8,4.5
		c-0.4,0-0.8,0.1-1.2,0.1c-9.6,0-16.7-11.5-22.7-37.3c-18.3-2.2-36.8-6.3-55.1-12.3c-0.8-0.2-1.7-0.5-2.6-0.9
		c-5.5-1.8-10.3-3.4-14.6-5c9.6,73.9,72.7,130.9,149.2,130.9c69.5,0,128-47.2,145.3-111.2C314.5,218.4,305.4,211.7,299.6,206.2
		L299.6,206.2z"/>
	<path fill="#0054A6" d="M346.1,136.3c-0.3-0.5-0.8-0.8-1.4-0.8c0,0-0.1,0-0.1,0c-6.7,0.4-16,4.4-27.8,11.9
		c-8.5,5.5-16.9,11.9-21.5,15.8c-6.7,5.7-12.1,9.6-13,10.3c-1.9,0.3-3.9,0.4-6.1,0.4c-6.4,0-12.7-1.2-15.7-2.3
		c-3.4-1.2-8.9-9.9-9.9-10.6c-1.6-0.4-4.6,1-6.2,2c-0.9,0.5-1.8,1.1-2.8,1.5c-0.9-0.2-4.9-1.2-10.2-2.5
		c-12.5-3.1-33.3-8.2-57.1-13.6c-0.3-0.1-0.5-0.1-0.8-0.2c-2.2-0.2-4.3-0.3-6.1-0.3c-1.7,0-3.2,0-4.3,0c-1.5,0-2.4-0.1-2.3-0.4
		c0.1-0.3,0.7-0.7,1.8-1c0,0,3-0.7,5.5-0.8c0.4,0,0.9,0,1.4,0c0.7,0,1.5,0,2.4,0.1c0.4-0.1,0.6-0.4,0.8-0.6c0.1-0.3,0.3-0.8-0.2-1.5
		c-1.9-2.8-3.1-14-4.1-23c-0.3-2.6-0.6-5-0.8-7.2c0,0,0-0.1,0-0.1c0,0,0-0.2,0-0.3c-0.1-2.2-1.4-2.2-1.4-2.2
		c-3.5,0-10.9,8.2-18.4,17.1c-0.5,0.6-0.9,1.1-1.3,1.5c-1.4,1.7-2.6,3.3-3.8,4.9c-3.7,5-6.9,9.3-15,12.3
		c-35.2,3.9-64.9,12.9-79.5,17.9c-10,3.4-19,7.1-25.4,10.4c-9.9,5.1-9.8,7.2-9.8,7.9c0,0,0,0,0,0.1c0.5,5.9,17.9,12,34.1,17.3
		c1,0.3,1.9,0.6,2.7,0.9c19.2,6.3,38.6,10.5,57.7,12.5c5.2,23.5,11.3,36.8,18.5,36.8c0.2,0,0.4,0,0.6,0c2-0.2,2.5-3.9,2.5-5.5
		c0-0.2,0-18.1,2.7-30c0.4,0,0.8,0,1.2,0c38.7,0,65.9-9.2,78.7-14.6c0.2-0.1,0.4-0.1,0.5-0.2c0,0,0.1,0,0.1,0.1
		c2.4,1.3,4.6,2.3,6.7,3c2.9,0.8,5.3,0.9,6.1,0.9c0.1,0,0.2,0,0.3,0c2.9-0.3,3.3-3.1,3.6-5.4c0.2-1.6,0.4-3.1,1.3-3.7
		c3.9-2.2,17.4-4.4,20.6-4.4c0,0,0.1,0,0.1,0c0.8,0,3.7,4.9,8.8,5.1c0,0,2-0.4,2.4-1.7c0.4-1.2,1.6-4.6,2.1-6c0-0.1,0.1-0.2,0.1-0.3
		c2.3-0.7,12.7-1,21.8-1c1.7,1.6,12.6,11.4,17.3,15.9c5.5,5.2,14,11.6,23.7,12.5c0,0,0,0,0.1,0c0.3,0,1.1-0.1,1.3-0.9
		c0.2-0.5,0.1-1.1-0.3-1.5c-6.2-6.3-11.9-16.3-16.4-28.8c-0.1-0.3-0.2-0.5-0.2-0.6c0.5-8.8,19.5-29.2,22.2-32.1
		c1.3,0.7,3.1,1.6,4.2,1.6c1,0,1.6-0.6,1.6-1.5c0.1-2.1,1.1-6.2,2.6-7.8c1.2-1.2,2.8-3.6,4-5.4C346.4,137.4,346.4,136.8,346.1,136.3
		L346.1,136.3z M40.1,176.9c1.2,0.2,2.1,1.4,1.9,2.6c-0.2,1.2-1.4,2.1-2.6,1.9c-1.2-0.2-2.1-1.4-1.9-2.6
		C37.7,177.5,38.9,176.7,40.1,176.9L40.1,176.9z M47.8,196.7c-1.3-0.5-0.2-1-0.2-1c3.6-2.6,7.2,0.7,11.6-0.6c1.7-0.8,0.8-1.7,0.3-2
		c-1-0.6-9.8-1.2-12.1-1c-2.2,0.2-4,3-6.8,2.4c0,0-11.8-3.9-14.9-5.8c-0.4-0.2-0.4-0.7,0-0.9c0.8-0.5,2.3-0.8,6.7-1
		c12.3-0.6,21.6,2.7,34.7,5.4c0,0,0.1-4,2.5-10.3c0,0,1.8-4.9,3.4-4.9c0,0-1.6,4.6-1.9,7.1c0,0-0.6,3.9-0.2,6.1
		c0.1,0.8,0.3,1.5,0.8,2.1c0.7,0.6,1.9,1.1,2.8,1.3c-0.4-4,2.6-16.5,4.8-16.1c-1.8,7.9-1.6,14.1-0.6,15.5c0.9,1.3,3.2,1.3,3.2,1.3
		c-0.8-3,1.7-17,3.9-16.6c-2,8.5-0.8,14.5-0.4,15.5c0.7,1.5,3.3,1.7,3.3,1.7c-0.7-3.2,1.5-17,4-16.6c-2.4,8.3-0.6,13.3-0.3,14.7
		c0.4,1.5,3,2.5,3.3,2.5c0,0,0,0,0,0c-0.7-3.5,1.5-17.2,4-16.8c-1.9,8.3-0.8,14-0.2,15.2c0.3,0.5,0.7,0.8,1.1,1c0,0,0.1,0,0.1,0
		c1.2-1.9,1.1-4.9,3-6c0.4,3.2,1.6,11.4,3.5,20.7C97.8,208.7,66.8,204.6,47.8,196.7L47.8,196.7z M275.5,183.6
		c0.1,0-17.4,0.5-17.4,3.1c0,1,0.9,0.7,3.3,0.1c-0.7,1.6-1.5,3.8-1.9,5.2c-3.8-0.4-6.1-3-6.7-5.3c-4.9,0.3-8.9,0.8-12.2,1.4
		c-12.2,1.3-18.9,6.1-18.8,7.2c0.1,0.8,1.4,0.2,5.3-1.1c-2.5,3.3-0.6,6.5-3,6.4c-4.2-0.1-12.3-4.9-12.4-4.7
		c-0.4,0.4-37.7,16.4-79.8,14.9c0.6-1.9,1.3-3.5,2.2-4.7c3.5-4.9-1.5-10.1-6.4-13.7c28.5-4.2,40.2,5.2,82.4-6.4
		c41.2-11.3,94.7-3,94.7-3C304.5,183.4,287.9,183.2,275.5,183.6L275.5,183.6z"/>
	<path fill="#FFFFFF" d="M40.1,176.9c1.2,0.2,2.1,1.4,1.9,2.6c-0.2,1.2-1.4,2.1-2.6,1.9c-1.2-0.2-2.1-1.4-1.9-2.6
		C37.7,177.5,38.9,176.7,40.1,176.9L40.1,176.9z"/>
	<path fill="#FFFFFF" d="M47.8,196.7c-1.3-0.5-0.2-1-0.2-1c3.6-2.6,7.2,0.7,11.6-0.6c1.7-0.8,0.8-1.7,0.3-2c-1-0.6-9.8-1.2-12.1-1
		c-2.2,0.2-4,3-6.8,2.4c0,0-11.8-3.9-14.9-5.8c-0.4-0.2-0.4-0.7,0-0.9c0.8-0.5,2.3-0.8,6.7-1c12.3-0.6,21.6,2.7,34.7,5.4
		c0,0,0.1-4,2.5-10.3c0,0,1.8-4.9,3.4-4.9c0,0-1.6,4.6-1.9,7.1c0,0-0.6,3.9-0.2,6.1c0.1,0.8,0.3,1.5,0.8,2.1
		c0.7,0.6,1.9,1.1,2.8,1.3c-0.4-4,2.6-16.5,4.8-16.1c-1.8,7.9-1.6,14.1-0.6,15.5c0.9,1.3,3.2,1.3,3.2,1.3c-0.8-3,1.7-17,3.9-16.6
		c-2,8.5-0.8,14.5-0.4,15.5c0.7,1.5,3.3,1.7,3.3,1.7c-0.7-3.2,1.5-17,4-16.6c-2.4,8.3-0.6,13.3-0.3,14.7c0.4,1.5,3,2.5,3.3,2.5
		c0,0,0,0,0,0c-0.7-3.5,1.5-17.2,4-16.8c-1.9,8.3-0.8,14-0.2,15.2c0.3,0.5,0.7,0.8,1.1,1c0,0,0.1,0,0.1,0c1.2-1.9,1.1-4.9,3-6
		c0.4,3.2,1.6,11.4,3.5,20.7C97.8,208.7,66.8,204.6,47.8,196.7L47.8,196.7z"/>
	<path fill="#FFFFFF" d="M275.5,183.6c0.1,0-17.4,0.5-17.4,3.1c0,1,0.9,0.7,3.3,0.1c-0.7,1.6-1.5,3.8-1.9,5.2
		c-3.8-0.4-6.1-3-6.7-5.3c-4.9,0.3-8.9,0.8-12.2,1.4c-12.2,1.3-18.9,6.1-18.8,7.2c0.1,0.8,1.4,0.2,5.3-1.1c-2.5,3.3-0.6,6.5-3,6.4
		c-4.2-0.1-12.3-4.9-12.4-4.7c-0.4,0.4-37.7,16.4-79.8,14.9c0.6-1.9,1.3-3.5,2.2-4.7c3.5-4.9-1.5-10.1-6.4-13.7
		c28.5-4.2,40.2,5.2,82.4-6.4c41.2-11.3,94.7-3,94.7-3C304.5,183.4,287.9,183.2,275.5,183.6L275.5,183.6z"/>
</g>
</svg>
